<svg width="32" height="24" viewBox="0 0 32 24" fill="none" xmlns="http://www.w3.org/2000/svg">
<path fill-rule="evenodd" clip-rule="evenodd" d="M29.5136 18.7208H30.508C31.3319 18.7208 32 18.05 32 17.2227V6.70687C32 5.87964 31.3319 5.2088 30.508 5.2088H29.6771C28.8532 5.2088 28.1851 5.87964 28.1851 6.70687V17.3869C28.1851 18.1235 28.78 18.7208 29.5136 18.7208Z" fill="#1DA1F2"/>
<path fill-rule="evenodd" clip-rule="evenodd" d="M8.5575 23.9295H9.55181C10.3757 23.9295 11.0439 23.2587 11.0439 22.4315V1.49806C11.0439 0.670839 10.3757 0 9.55181 0H8.72097C7.89707 0 7.22892 0.670839 7.22892 1.49806V22.5956C7.22892 23.3323 7.82381 23.9295 8.5575 23.9295Z" fill="#1DA1F2"/>
<path fill-rule="evenodd" clip-rule="evenodd" d="M22.5283 23.9295H23.5226C24.3465 23.9295 25.0146 23.2587 25.0146 22.4315V1.49806C25.0146 0.670839 24.3465 0 23.5226 0H22.6917C21.8678 0 21.1997 0.670839 21.1997 1.49806V22.5956C21.1997 23.3323 21.7946 23.9295 22.5283 23.9295Z" fill="#1DA1F2"/>
<path fill-rule="evenodd" clip-rule="evenodd" d="M1.57212 18.7208H2.56644C3.39034 18.7208 4.05849 18.05 4.05849 17.2227V6.70687C4.05849 5.87964 3.39034 5.2088 2.56644 5.2088H1.73559C0.911691 5.2088 0.243546 5.87964 0.243546 6.70687V17.3869C0.243546 18.1235 0.838437 18.7208 1.57212 18.7208Z" fill="#1DA1F2"/>
<path fill-rule="evenodd" clip-rule="evenodd" d="M15.5429 19.1445H16.5372C17.3611 19.1445 18.0293 18.4737 18.0293 17.6465V7.42903C18.0293 6.60142 17.3611 5.93097 16.5372 5.93097H15.7064C14.8825 5.93097 14.2143 6.60142 14.2143 7.42903V17.8106C14.2143 18.5472 14.8092 19.1445 15.5429 19.1445Z" fill="#1DA1F2"/>
</svg>
